# xmcd
#
# Track frame offsets: 
#        150
#        18882
#        36712
#        53907
#        64382
#        75037
#        88915
#        109142
#        136390
#        153340
#        171605
#
# Disc length: 2614 seconds
#
# Revision: 4
# Processed by: cddbd v1.5.2PL0 Copyright (c) Steve Scherf et al.
# Submitted via: ExactAudioCopy v0.99pb5
#
DISCID=930a340b
DTITLE=蘇永康 - 蘇永康•越唱越開心演唱會 [CD1]
DYEAR=1999
DGENRE=Pop
TTITLE0=有人喜歡藍 (蘇永康、許\志安)
TTITLE1=二人行 一日後 (蘇永康、許\志安)
TTITLE2=獨立宣言
TTITLE3=My Girl
TTITLE4=愛是這樣微妙
TTITLE5=Stand by me
TTITLE6=男人不該讓女人流淚\
TTITLE7=假使有日能忘記
TTITLE8=越吻越傷心
TTITLE9=情來自有方
TTITLE10=不想獨自快樂
EXTD=YEAR: 1999
EXTT0=許志安
EXTT1=許志安
EXTT2=
EXTT3=
EXTT4=
EXTT5=
EXTT6=
EXTT7=
EXTT8=
EXTT9=
EXTT10=
PLAYORDER=
